####
#
# OBJ File Generated by Meshlab
#
####
# Object finger_grammar2.obj
#
# Vertices: 8
# Faces: 12
#
####
vn -0.5966679 0.5573638 0.5773500
v -0.0000922 0.1114352 -0.0052640
vn -0.5966676 0.5573637 -0.5773503
v -0.0000922 0.1114352 -0.0439990
vn -0.5573636 -0.5966678 0.5773503
v -0.0000058 0.1088967 -0.0052640
vn -0.5573639 -0.5966679 -0.5773498
v -0.0000058 0.1088967 -0.0439990
vn 0.5573637 0.5966677 0.5773504
v 0.0339240 0.1125937 -0.0052640
vn 0.5966678 -0.5573639 0.5773500
v 0.0340105 0.1100552 -0.0052640
vn 0.5573641 0.5966679 -0.5773498
v 0.0339240 0.1125937 -0.0439990
vn 0.5966675 -0.5573639 -0.5773504
v 0.0340105 0.1100552 -0.0439990
# 8 vertices, 0 vertices normals

f 1//1 2//2 3//3
f 3//3 2//2 4//4
f 5//5 1//1 6//6
f 6//6 1//1 3//3
f 7//7 5//5 8//8
f 8//8 5//5 6//6
f 2//2 7//7 4//4
f 4//4 7//7 8//8
f 5//5 7//7 1//1
f 1//1 7//7 2//2
f 8//8 6//6 4//4
f 4//4 6//6 3//3
# 12 faces, 0 coords texture

# End of File
