####
#
# OBJ File Generated by Meshlab
#
####
# Object finger_grammar1.obj
#
# Vertices: 8
# Faces: 12
#
####
vn -0.5966679 0.5573638 0.5773501
v 0.0010587 0.0799621 -0.0041320
vn -0.5966678 0.5573637 -0.5773503
v 0.0010587 0.0799621 -0.0428670
vn -0.5573636 -0.5966678 0.5773503
v 0.0011452 0.0774236 -0.0041320
vn -0.5573638 -0.5966679 -0.5773501
v 0.0011452 0.0774236 -0.0428670
vn 0.5573632 0.5966681 0.5773504
v 0.0350750 0.0811207 -0.0041320
vn 0.5966682 -0.5573634 0.5773500
v 0.0351615 0.0785821 -0.0041320
vn 0.5573635 0.5966681 -0.5773501
v 0.0350750 0.0811207 -0.0428670
vn 0.5966681 -0.5573634 -0.5773503
v 0.0351615 0.0785821 -0.0428670
# 8 vertices, 0 vertices normals

f 1//1 2//2 3//3
f 3//3 2//2 4//4
f 5//5 1//1 6//6
f 6//6 1//1 3//3
f 7//7 5//5 8//8
f 8//8 5//5 6//6
f 2//2 7//7 4//4
f 4//4 7//7 8//8
f 5//5 7//7 1//1
f 1//1 7//7 2//2
f 8//8 6//6 4//4
f 4//4 6//6 3//3
# 12 faces, 0 coords texture

# End of File
