####
#
# OBJ File Generated by Meshlab
#
####
# Object finger1_tip2.obj
#
# Vertices: 102
# Faces: 200
#
####
vn 0.7779865 0.0908762 0.6216739
v -0.1759388 0.0285300 0.0167711
vn 0.5180269 0.7004724 -0.4909038
v -0.1759137 0.0354152 -0.0019148
vn 0.9719108 0.2191204 0.0858815
v -0.1763520 0.0359111 0.0118342
vn 0.3500889 -0.6856138 0.6382568
v -0.1747955 0.0144930 0.0139679
vn 0.7646167 -0.0475755 0.6427270
v -0.1751857 0.0186581 0.0165460
vn 0.0026625 -0.9972478 0.0740938
v -0.1944995 0.0110891 0.0083469
vn 0.8248118 -0.5627342 0.0549169
v -0.1745001 0.0125931 0.0087745
vn -0.0613894 0.0191118 0.9979309
v -0.1958336 0.0270255 0.0161900
vn 0.8586972 -0.4207080 0.2926500
v -0.1747065 0.0137281 0.0129050
vn 0.2633273 0.1983881 -0.9440873
v -0.1768703 0.0322414 -0.0038546
vn 0.7853213 0.6141330 0.0781742
v -0.1763262 0.0364988 0.0094019
vn 0.5010417 0.8347761 -0.2282676
v -0.1760371 0.0363277 -0.0000526
vn 0.6627412 0.3387906 0.6678287
v -0.1761588 0.0316904 0.0161205
vn 0.7178929 -0.5023171 -0.4819827
v -0.1742622 0.0133599 -0.0013567
vn -0.0624189 -0.4214901 0.9046823
v -0.1949503 0.0156442 0.0154139
vn 0.5656079 -0.4018284 0.7201540
v -0.1749862 0.0163873 0.0155927
vn 0.6102471 -0.7684226 0.1926792
v -0.1745710 0.0128094 0.0106413
vn 0.2883934 0.0095348 0.9574646
v -0.1753356 0.0205528 0.0167711
vn 0.6123651 0.4681009 -0.6370954
v -0.1758851 0.0351545 -0.0022209
vn -0.4791808 0.8637888 -0.1557387
v -0.1992653 0.0341353 0.0009477
vn 0.5100691 0.7751307 -0.3728296
v -0.1759669 0.0358592 -0.0012433
vn 0.9415445 0.0643044 -0.3306948
v -0.1749522 0.0214618 -0.0025355
vn 0.0726095 -0.3725859 -0.9251528
v -0.1944787 0.0157676 -0.0043760
vn -0.3460550 -0.9382091 0.0031146
v -0.1983630 0.0117337 0.0032729
vn 0.8446885 -0.2969441 0.4453376
v -0.1748882 0.0153762 0.0148552
vn 0.4480765 -0.3114444 0.8379916
v -0.1750871 0.0175014 0.0161624
vn 0.9390960 0.0000085 0.3436549
v -0.1752877 0.0199296 0.0167469
vn 0.4985944 -0.7917591 0.3528756
v -0.1746349 0.0131936 0.0118347
vn 0.0496684 -0.9937508 -0.0999619
v -0.1941737 0.0111054 0.0005800
vn -0.0061254 0.3345595 -0.9423547
v -0.1893469 0.0316449 -0.0040630
vn 0.2427847 0.9698154 0.0226629
v -0.1763099 0.0365248 0.0087745
vn 0.2359443 0.9562558 0.1729314
v -0.1763474 0.0363051 0.0106255
vn 0.5373759 0.8423642 -0.0406179
v -0.1760790 0.0365253 0.0008720
vn 0.3827611 0.6118457 0.6921986
v -0.1762750 0.0337150 0.0148552
vn 0.2763457 0.2090334 0.9380502
v -0.1760733 0.0303927 0.0165501
vn 0.5363423 0.6411899 0.5488283
v -0.1763161 0.0346021 0.0139684
vn 0.2399794 0.8377409 0.4905101
v -0.1763423 0.0353401 0.0129527
vn 0.0000000 0.0000000 0.0000000
v -0.1762682 0.0227588 -0.0037638
vn -0.0211409 -0.6468937 0.7622871
v -0.1947823 0.0138773 0.0142369
vn -0.6656141 -0.1721893 0.7261602
v -0.2014721 0.0196067 0.0136215
vn -0.0710479 -0.0384600 0.9967312
v -0.1952303 0.0190483 0.0161900
vn 0.0245154 -0.9440935 0.3287650
v -0.1945089 0.0115581 0.0108842
vn 0.0763198 -0.9965369 -0.0330081
v -0.1742790 0.0126098 0.0011611
vn -0.1871323 0.9220152 -0.3389239
v -0.1970570 0.0348065 -0.0003657
vn -0.0145783 0.5021079 -0.8646821
v -0.1888681 0.0332142 -0.0033793
vn -0.0133142 0.1301292 -0.9914076
v -0.1955741 0.0303900 -0.0043825
vn 0.6575550 0.4180536 0.6267795
v -0.1762207 0.0327159 0.0155845
vn -0.0435358 0.1207202 0.9917315
v -0.1859357 0.0284427 0.0164524
vn -0.1283918 0.6450137 0.7533079
v -0.1961794 0.0324109 0.0140861
vn -0.0687640 -0.9478332 -0.3112617
v -0.1976031 0.0116638 -0.0017477
vn 0.0846404 -0.5401229 -0.8373191
v -0.1873573 0.0138805 -0.0033220
vn -0.0250519 -0.8049383 0.5928294
v -0.1946551 0.0126811 0.0129817
vn 0.0612369 -0.9879249 0.1423178
v -0.1844856 0.0119299 0.0095573
vn 0.7610399 -0.6434875 -0.0821115
v -0.1742717 0.0126304 0.0008584
vn 0.9969102 0.0729868 0.0290348
v -0.1742743 0.0126187 0.0009773
vn 0.7392849 -0.6036298 -0.2984777
v -0.1742574 0.0129129 -0.0003620
vn -0.1197272 0.8420013 -0.5260221
v -0.1925791 0.0348446 -0.0012058
vn -0.1722068 0.8645231 -0.4721700
v -0.1989995 0.0338212 -0.0023526
vn -0.0399743 0.6787797 -0.7332532
v -0.1938703 0.0337646 -0.0027710
vn -0.8309274 0.4230359 -0.3613867
v -0.2039113 0.0288220 -0.0034947
vn -0.1954100 0.9806545 -0.0114809
v -0.1975907 0.0347748 0.0040944
vn -0.0848722 0.9961561 -0.0216749
v -0.1911203 0.0354048 0.0045293
vn -0.0882360 0.9936646 0.0696072
v -0.1962227 0.0349873 0.0088989
vn -0.2065487 0.8868533 0.4133144
v -0.1962452 0.0342387 0.0116075
vn -0.1472324 0.2066263 0.9672788
v -0.1959651 0.0288485 0.0159719
vn 0.0635274 -0.3065247 -0.9497404
v -0.1893619 0.0148268 -0.0039334
vn -0.9904172 0.1354900 -0.0267620
v -0.2051558 0.0260440 0.0012524
vn 0.0814415 -0.7157530 -0.6935885
v -0.1866505 0.0130373 -0.0025163
vn -0.3049385 -0.2565349 0.9171709
v -0.1971149 0.0166650 0.0154386
vn -0.1216215 0.8082467 0.5761471
v -0.1962345 0.0337512 0.0125034
vn -0.1247890 0.9595359 0.2524253
v -0.1962440 0.0347340 0.0102868
vn -0.2504843 0.4103713 0.8768427
v -0.1973620 0.0306698 0.0149816
vn -0.2649812 -0.0055918 0.9642374
v -0.1967613 0.0230010 0.0160462
vn 0.3832429 -0.3629825 -0.8493342
v -0.1754834 0.0164316 -0.0038491
vn -0.8988189 -0.2487330 -0.3609109
v -0.2037140 0.0177705 -0.0036499
vn -0.9927750 -0.1148275 -0.0348212
v -0.2050596 0.0216592 0.0027657
vn -0.5788131 -0.5634042 0.5895346
v -0.2005783 0.0147359 0.0121431
vn -0.8836238 -0.0399617 0.4664891
v -0.2039263 0.0229817 0.0110968
vn -0.9861504 -0.0626978 0.1535458
v -0.2049944 0.0224081 0.0080699
vn -0.3230944 -0.5886873 -0.7409841
v -0.2014375 0.0135918 -0.0046091
vn -0.3942389 0.0336464 -0.9183919
v -0.2036727 0.0240437 -0.0043870
vn -0.2719581 0.9522723 0.1386229
v -0.1978350 0.0346061 0.0094528
vn -0.2114350 -0.8560527 0.4716663
v -0.1965813 0.0122396 0.0119970
vn -0.5735804 -0.8010409 0.1712866
v -0.1999404 0.0126709 0.0089973
vn -0.1624620 -0.9742072 0.1566098
v -0.1962394 0.0114480 0.0100765
vn -0.1682962 -0.9837967 -0.0618110
v -0.1957405 0.0111198 0.0020898
vn -0.4983382 0.8403606 0.2131972
v -0.1994501 0.0338007 0.0096890
vn -0.3086259 0.5726513 -0.7594871
v -0.2011931 0.0317715 -0.0038471
vn -0.9587505 -0.2841719 0.0066135
v -0.2044785 0.0179726 0.0037625
vn -0.8421681 -0.5392064 -0.0030786
v -0.2033879 0.0157206 0.0015360
vn -0.8694348 -0.3880355 0.3057968
v -0.2036193 0.0172754 0.0097311
vn -0.4487585 -0.0136162 0.8935494
v -0.1995575 0.0232421 0.0151402
vn -0.4483171 0.3268298 0.8319821
v -0.1997880 0.0295609 0.0145177
vn -0.2443247 -0.6322782 0.7352073
v -0.1964085 0.0138761 0.0139966
vn -0.7491332 0.6615482 0.0339622
v -0.2025228 0.0318665 0.0033390
vn -0.3021335 0.7357497 0.6061252
v -0.1974463 0.0332336 0.0128273
vn -0.9260947 -0.0069685 -0.3772269
v -0.2049045 0.0236252 -0.0032699
vn -0.6567314 0.6251471 0.4217761
v -0.2007617 0.0319530 0.0118088
vn -0.7396223 0.1731803 0.6503596
v -0.2026782 0.0276815 0.0128061
vn -0.9191768 0.3292540 0.2161155
v -0.2044033 0.0284931 0.0086538
vn -0.6303120 0.7720038 -0.0819562
v -0.2010975 0.0331127 0.0015748
vn -0.8960738 0.4435852 -0.0168488
v -0.2041171 0.0296433 0.0034307
# 102 vertices, 0 vertices normals

f 9//9 3//3 5//5
f 9//9 7//7 3//3
f 27//27 5//5 3//3
f 27//27 3//3 1//1
f 11//11 3//3 33//33
f 12//12 33//33 3//3
f 13//13 1//1 3//3
f 17//17 7//7 9//9
f 18//18 27//27 1//1
f 18//18 1//1 8//8
f 54//54 56//56 3//3
f 54//54 3//3 7//7
f 19//19 2//2 3//3
f 32//32 3//3 11//11
f 21//21 12//12 3//3
f 21//21 3//3 2//2
f 21//21 2//2 58//58
f 47//47 13//13 3//3
f 47//47 3//3 36//36
f 14//14 22//22 3//3
f 14//14 3//3 56//56
f 25//25 16//16 39//39
f 25//25 4//4 9//9
f 25//25 9//9 5//5
f 25//25 5//5 16//16
f 26//26 16//16 5//5
f 26//26 5//5 15//15
f 26//26 15//15 16//16
f 52//52 9//9 4//4
f 28//28 17//17 9//9
f 42//42 17//17 28//28
f 53//53 6//6 7//7
f 53//53 7//7 17//17
f 59//59 2//2 19//19
f 80//80 10//10 74//74
f 31//31 11//11 33//33
f 34//34 47//47 36//36
f 35//35 1//1 13//13
f 37//37 36//36 3//3
f 38//38 74//74 10//10
f 80//80 74//74 23//23
f 39//39 4//4 25//25
f 39//39 16//16 15//15
f 41//41 27//27 18//18
f 41//41 18//18 8//8
f 42//42 28//28 9//9
f 43//43 7//7 29//29
f 6//6 29//29 7//7
f 57//57 12//12 21//21
f 22//22 19//19 3//3
f 80//80 46//46 10//10
f 46//46 30//30 10//10
f 62//62 31//31 33//33
f 63//63 32//32 11//11
f 63//63 61//61 32//32
f 44//44 33//33 12//12
f 48//48 8//8 1//1
f 48//48 1//1 35//35
f 48//48 35//35 65//65
f 49//49 34//34 36//36
f 70//70 36//36 37//37
f 50//50 68//68 14//14
f 94//94 39//39 15//15
f 73//73 27//27 41//41
f 73//73 5//5 27//27
f 52//52 4//4 39//39
f 52//52 39//39 94//94
f 53//53 17//17 42//42
f 54//54 43//43 29//29
f 55//55 54//54 7//7
f 55//55 7//7 43//43
f 55//55 43//43 54//54
f 57//57 21//21 58//58
f 57//57 44//44 12//12
f 57//57 20//20 44//44
f 58//58 2//2 59//59
f 63//63 62//62 61//61
f 63//63 11//11 31//31
f 63//63 31//31 62//62
f 64//64 37//37 3//3
f 71//71 64//64 3//3
f 71//71 3//3 32//32
f 49//49 47//47 34//34
f 49//49 72//72 47//47
f 65//65 35//35 13//13
f 73//73 8//8 48//48
f 73//73 41//41 8//8
f 73//73 48//48 65//65
f 96//96 49//49 36//36
f 22//22 10//10 19//19
f 38//38 10//10 74//74
f 74//74 22//22 14//14
f 85//85 53//53 42//42
f 83//83 42//42 9//9
f 51//51 74//74 68//68
f 74//74 66//66 23//23
f 69//69 94//94 15//15
f 69//69 15//15 5//5
f 88//88 45//45 30//30
f 10//10 30//30 45//45
f 61//61 44//44 20//20
f 20//20 57//57 58//58
f 10//10 45//45 19//19
f 88//88 30//30 46//46
f 81//81 88//88 46//46
f 61//61 62//62 33//33
f 87//87 96//96 64//64
f 70//70 37//37 64//64
f 70//70 64//64 96//96
f 49//49 96//96 72//72
f 96//96 36//36 70//70
f 74//74 14//14 68//68
f 91//91 40//40 78//78
f 83//83 85//85 42//42
f 77//77 83//83 94//94
f 80//80 68//68 50//50
f 80//80 51//51 68//68
f 69//69 5//5 73//73
f 83//83 9//9 52//52
f 83//83 52//52 94//94
f 85//85 6//6 53//53
f 67//67 60//60 97//97
f 59//59 19//19 45//45
f 81//81 46//46 80//80
f 44//44 61//61 33//33
f 82//82 32//32 61//61
f 82//82 71//71 32//32
f 82//82 61//61 20//20
f 82//82 87//87 64//64
f 82//82 64//64 71//71
f 72//72 73//73 65//65
f 72//72 93//93 73//73
f 72//72 65//65 13//13
f 72//72 13//13 47//47
f 74//74 10//10 22//22
f 74//74 51//51 66//66
f 80//80 23//23 66//66
f 80//80 66//66 51//51
f 85//85 84//84 24//24
f 83//83 77//77 84//84
f 83//83 84//84 85//85
f 86//86 6//6 85//85
f 86//86 29//29 6//6
f 78//78 40//40 99//99
f 99//99 98//98 100//100
f 78//78 99//99 100//100
f 93//93 98//98 99//99
f 95//95 100//100 98//98
f 82//82 20//20 87//87
f 75//75 76//76 97//97
f 67//67 79//79 100//100
f 67//67 76//76 79//79
f 75//75 90//90 89//89
f 94//94 69//69 77//77
f 92//92 73//73 93//93
f 40//40 69//69 92//92
f 73//73 92//92 69//69
f 50//50 56//56 86//86
f 88//88 59//59 45//45
f 20//20 58//58 88//88
f 102//102 60//60 67//67
f 67//67 97//97 76//76
f 58//58 59//59 88//88
f 81//81 60//60 88//88
f 96//96 87//87 98//98
f 50//50 14//14 56//56
f 76//76 75//75 89//89
f 90//90 80//80 84//84
f 91//91 77//77 40//40
f 89//89 91//91 79//79
f 86//86 85//85 24//24
f 50//50 86//86 24//24
f 56//56 54//54 29//29
f 56//56 29//29 86//86
f 91//91 84//84 77//77
f 90//90 84//84 91//91
f 91//91 89//89 90//90
f 84//84 80//80 24//24
f 100//100 79//79 78//78
f 79//79 91//91 78//78
f 101//101 95//95 87//87
f 100//100 95//95 102//102
f 76//76 89//89 79//79
f 75//75 81//81 80//80
f 75//75 80//80 90//90
f 77//77 69//69 40//40
f 93//93 99//99 92//92
f 92//92 99//99 40//40
f 20//20 88//88 101//101
f 60//60 102//102 95//95
f 60//60 81//81 97//97
f 100//100 102//102 67//67
f 93//93 72//72 96//96
f 93//93 96//96 98//98
f 81//81 75//75 97//97
f 80//80 50//50 24//24
f 98//98 87//87 95//95
f 101//101 87//87 20//20
f 88//88 60//60 101//101
f 60//60 95//95 101//101
# 200 faces, 0 coords texture

# End of File
