####
#
# OBJ File Generated by Meshlab
#
####
# Object finger_tip.obj
#
# Vertices: 189
# Faces: 350
#
####
vn 0.0546280 -0.7060053 0.7060965
v 0.0198578 0.1423562 -0.0242789
vn 0.0363192 0.0613136 0.9974576
v 0.0191784 0.1623046 -0.0242789
vn -0.0302306 -0.4490793 0.8929803
v 0.0116010 0.1420750 -0.0242875
vn -0.0437109 0.0429212 0.9981218
v 0.0111831 0.1620323 -0.0242789
vn -0.9991090 0.0254317 0.0336807
v 0.0031877 0.1617600 -0.0322789
vn -0.8091719 -0.5846008 -0.0590156
v 0.0038777 0.1418119 -0.0400330
vn -0.9960840 0.0257126 -0.0845913
v 0.0031877 0.1617600 -0.0398955
vn -0.8103897 -0.5832022 0.0560695
v 0.0038757 0.1418118 -0.0320173
vn -0.1807205 0.0744220 0.9807148
v 0.0100512 0.1619937 -0.0243749
vn -0.1823028 -0.5622232 0.8066416
v 0.0102001 0.1420272 -0.0244537
vn -0.1106070 -0.9534181 0.2806422
v 0.0085713 0.1419718 -0.0250109
vn -0.3908695 0.0642049 0.9182041
v 0.0079833 0.1620805 -0.0249826
vn -0.3848775 -0.7209335 0.5763022
v 0.0070786 0.1419209 -0.0258689
vn -0.6331074 0.1147707 0.7655082
v 0.0060982 0.1621411 -0.0261698
vn -0.6622440 -0.3373627 0.6690435
v 0.0062089 0.1418913 -0.0266220
vn -0.4222694 -0.8480536 0.3201464
v 0.0054561 0.1418657 -0.0274923
vn -0.8147030 0.0580737 0.5769631
v 0.0047126 0.1618119 -0.0275909
vn -0.7307563 -0.5810665 0.3582693
v 0.0045986 0.1418365 -0.0289858
vn -0.9337332 0.0454927 0.3550672
v 0.0037369 0.1617787 -0.0294403
vn -0.7887832 -0.5831947 0.1941780
v 0.0040418 0.1418175 -0.0306156
vn -0.9827102 0.0606958 0.1749189
v 0.0032837 0.1617633 -0.0311462
vn 0.9954954 0.0924038 0.0212258
v 0.0271738 0.1625769 -0.0322789
vn 0.9846319 0.1185770 0.1282170
v 0.0271460 0.1625760 -0.0316253
vn 0.9083934 -0.4171244 0.0287862
v 0.0278532 0.1426285 -0.0322789
vn 0.6173693 -0.7801375 0.1011964
v 0.0277573 0.1426252 -0.0311856
vn 0.9525765 0.1124358 0.2827653
v 0.0268680 0.1625665 -0.0301642
vn 0.8932088 -0.2867265 0.3463612
v 0.0273590 0.1426117 -0.0295100
vn 0.6179513 -0.6880900 0.3803530
v 0.0265742 0.1425849 -0.0279770
vn 0.8409506 0.1124459 0.5292996
v 0.0259336 0.1625347 -0.0280386
vn 0.6199083 -0.5351688 0.5738537
v 0.0255114 0.1425487 -0.0266220
vn 0.6626024 0.0886340 0.7437084
v 0.0243478 0.1624807 -0.0262134
vn 0.3103942 -0.8480679 0.4294606
v 0.0241573 0.1425026 -0.0255586
vn 0.3339899 -0.5457683 0.7684971
v 0.0226252 0.1424504 -0.0247734
vn 0.3037985 0.0794193 0.9494204
v 0.0217958 0.1623937 -0.0247270
vn 0.1562193 0.1129261 0.9812458
v 0.0203104 0.1623432 -0.0243749
vn 0.1572001 -0.4432920 0.8824854
v 0.0209504 0.1423934 -0.0243749
vn 0.7196048 -0.6854546 -0.1109994
v 0.0278433 0.1426281 -0.0400340
vn 0.9943256 0.0918058 -0.0537427
v 0.0271738 0.1625769 -0.0399009
vn 0.9558073 0.1291347 -0.2641151
v 0.0268287 0.1641242 -0.0412577
vn 0.7840989 -0.3651319 -0.5018642
v 0.0273653 0.1426119 -0.0418193
vn 0.8440979 0.1395186 -0.5177194
v 0.0258556 0.1658707 -0.0430083
vn 0.5959234 -0.1933276 -0.7794228
v 0.0260688 0.1437939 -0.0435609
vn 0.6623989 0.1996653 -0.7220536
v 0.0247462 0.1670009 -0.0440273
vn 0.3591909 -0.1410615 -0.9225419
v 0.0244622 0.1443806 -0.0445486
vn 0.5072479 0.1920075 -0.8401385
v 0.0239606 0.1675760 -0.0444360
vn 0.1827858 -0.2097139 -0.9605256
v 0.0232897 0.1443894 -0.0448413
vn 0.3274325 -0.0549148 -0.9432775
v 0.0226257 0.1683543 -0.0448171
vn 0.1023728 -0.1027857 -0.9894215
v 0.0227281 0.1443743 -0.0448770
vn -0.9846079 0.1114433 -0.1346391
v 0.0033700 0.1634744 -0.0410019
vn -0.8396143 -0.4775060 -0.2589127
v 0.0041356 0.1418211 -0.0412255
vn -0.1203637 -0.2739456 -0.9541836
v 0.0085387 0.1433734 -0.0448769
vn -0.1915991 0.2643017 -0.9452166
v 0.0079183 0.1681653 -0.0448741
vn -0.2694006 -0.0568100 -0.9613511
v 0.0078766 0.1438536 -0.0447673
vn -0.3513992 0.1878774 -0.9171808
v 0.0069484 0.1676000 -0.0447455
vn -0.5472507 0.1367756 -0.8257173
v 0.0058400 0.1667949 -0.0443281
vn -0.4649168 -0.1336388 -0.8752103
v 0.0063823 0.1436742 -0.0441791
vn -0.7780872 0.1611855 -0.6071240
v 0.0045615 0.1655031 -0.0433244
vn -0.9209965 0.0675967 -0.3836616
v 0.0037030 0.1642221 -0.0421042
vn -0.4425070 -0.6439273 -0.6241355
v 0.0049129 0.1418471 -0.0428910
vn -0.0164063 -0.7169889 -0.6968915
v 0.0089123 0.1426158 -0.0442665
vn 0.1258306 -0.9320967 -0.3396506
v 0.0243787 0.1425102 -0.0436255
vn 0.0900250 -0.4274790 -0.8995317
v 0.0227497 0.1437392 -0.0447409
vn 0.6534253 0.7214174 -0.2293303
v 0.0238525 0.1696365 -0.0427755
vn 0.8677839 0.4732275 -0.1516801
v 0.0257615 0.1673207 -0.0420241
vn 0.7382376 0.6687363 0.0883010
v 0.0247783 0.1686074 -0.0325212
vn 0.8723432 0.4703413 0.1334034
v 0.0257985 0.1670862 -0.0318005
vn 0.9689918 0.2360201 0.0731405
v 0.0269012 0.1643736 -0.0323211
vn 0.9583120 0.2562005 -0.1264890
v 0.0267790 0.1648550 -0.0408396
vn 0.3975138 0.9172719 -0.0243945
v 0.0217838 0.1710766 -0.0399147
vn 0.1293629 0.9912695 -0.0254959
v 0.0180913 0.1721408 -0.0400926
vn -0.0836558 0.2093048 0.9742655
v 0.0111605 0.1634047 -0.0244000
vn -0.0514001 0.4767482 0.8775358
v 0.0130980 0.1665278 -0.0253914
vn 0.0557069 0.7288893 0.6823615
v 0.0182902 0.1696794 -0.0276354
vn -0.0402970 0.9967194 0.0701905
v 0.0147985 0.1721180 -0.0353475
vn -0.9733279 0.2147693 0.0806663
v 0.0034446 0.1639028 -0.0320526
vn -0.9139025 0.3325308 -0.2328205
v 0.0041101 0.1659695 -0.0421441
vn -0.7933919 0.5681742 -0.2184202
v 0.0054441 0.1683817 -0.0426389
vn -0.6757429 0.7311507 0.0937563
v 0.0064439 0.1694235 -0.0327525
vn -0.2974820 0.9404126 -0.1647076
v 0.0096961 0.1714098 -0.0428770
vn -0.5645685 0.7738649 -0.2870464
v 0.0071380 0.1700246 -0.0429820
vn -0.4289678 0.8821979 0.1942001
v 0.0082008 0.1705569 -0.0324268
vn -0.1850181 0.9717503 0.1465257
v 0.0111202 0.1717495 -0.0333053
vn -0.6851638 0.6330702 0.3602399
v 0.0062176 0.1683090 -0.0298241
vn -0.8670706 0.2869956 0.4072126
v 0.0042061 0.1641339 -0.0292810
vn -0.5872028 0.4283378 0.6868185
v 0.0063630 0.1659933 -0.0272722
vn -0.8636366 0.4878573 0.1269932
v 0.0046296 0.1671301 -0.0322312
vn -0.1883733 0.6254466 0.7571870
v 0.0104367 0.1685425 -0.0270707
vn -0.3386727 0.3180918 0.8855047
v 0.0082377 0.1643371 -0.0253134
vn -0.3700294 0.7480032 0.5509715
v 0.0085606 0.1690138 -0.0280965
vn 0.1909054 0.9676455 0.1649770
v 0.0198601 0.1717042 -0.0325395
vn -0.0755983 0.9166178 0.3925516
v 0.0132408 0.1710193 -0.0300028
vn 0.2922378 0.5615523 0.7741163
v 0.0213074 0.1673014 -0.0263677
vn 0.0760432 0.3088888 0.9480534
v 0.0190754 0.1648654 -0.0247096
vn 0.4972078 0.1324410 0.8574637
v 0.0231675 0.1629558 -0.0254172
vn 0.3256755 0.2978517 0.8973404
v 0.0215042 0.1646345 -0.0250688
vn 0.2676420 0.8419722 0.4684556
v 0.0204561 0.1701881 -0.0290526
vn 0.5180399 0.8414995 0.1533402
v 0.0224947 0.1705656 -0.0323711
vn 0.8848357 0.3278500 0.3310288
v 0.0261888 0.1651858 -0.0300573
vn 0.6382994 0.6446728 0.4206792
v 0.0237548 0.1688045 -0.0297169
vn 0.6537864 0.3500641 0.6708343
v 0.0246156 0.1646969 -0.0270415
vn -0.5494993 0.4692314 -0.6912832
v 0.0064942 0.1682426 -0.0442015
vn -0.2589785 0.6480156 -0.7162443
v 0.0100353 0.1707432 -0.0442181
vn -0.0625554 0.9459577 -0.3181997
v 0.0133372 0.1719611 -0.0434716
vn 0.2723529 0.9018078 -0.3355096
v 0.0197777 0.1716012 -0.0434265
vn -0.0088972 0.4380113 -0.8989255
v 0.0177451 0.1709638 -0.0448771
vn 0.5522786 0.4577401 -0.6967513
v 0.0228427 0.1688441 -0.0448765
vn 0.8179535 0.3897616 -0.4231290
v 0.0255316 0.1669947 -0.0428563
vn -0.0340373 0.9994206 -0.0000010
v 0.0245145 0.1525206 -0.0307789
vn -0.0577436 0.5794854 0.8129345
v 0.0248079 0.1525306 -0.0324241
vn -0.6780474 0.5681445 0.4663300
v 0.0259201 0.1525684 -0.0317636
vn -0.7804070 0.5539910 -0.2899295
v 0.0259955 0.1525710 -0.0300251
vn -0.2756083 0.5651079 -0.7776203
v 0.0250346 0.1525383 -0.0291272
vn 0.4818719 0.5990852 -0.6394501
v 0.0238273 0.1524972 -0.0292196
vn 0.6355760 0.7633396 -0.1155677
v 0.0228790 0.1524649 -0.0305289
vn 0.6184588 0.6166123 0.4871324
v 0.0233012 0.1524792 -0.0319929
vn -0.5331553 -0.6148649 -0.5811080
v 0.0253462 0.1600132 -0.0295659
vn 0.2297470 -0.3635560 -0.9027975
v 0.0238165 0.1599611 -0.0291205
vn 0.4053905 -0.5862673 0.7013910
v 0.0232764 0.1599427 -0.0321853
vn -0.3712186 -0.3606808 0.8556321
v 0.0248351 0.1599958 -0.0323481
vn -0.6328028 -0.7676603 0.1012835
v 0.0258928 0.1600318 -0.0312165
vn 0.7713485 -0.6277302 -0.1047674
v 0.0226499 0.1599214 -0.0307549
vn -0.0340341 0.9994207 0.0000031
v 0.0155198 0.1522142 -0.0397789
vn 0.4429017 0.7789880 0.4438647
v 0.0144660 0.1521783 -0.0409980
vn -0.1902031 0.5743357 0.7962169
v 0.0160376 0.1522319 -0.0413775
vn -0.8013880 0.5635830 0.2003785
v 0.0171351 0.1522692 -0.0403292
vn -0.6090130 0.5670794 -0.5545486
v 0.0167453 0.1522560 -0.0387550
vn 0.1392395 0.6027735 -0.7856695
v 0.0153679 0.1522091 -0.0380422
vn 0.7619069 0.6347779 -0.1286655
v 0.0140889 0.1521655 -0.0389382
vn -0.1742061 -0.6107790 -0.7723997
v 0.0155213 0.1596786 -0.0381107
vn -0.4156704 -0.7779766 0.4711376
v 0.0164429 0.1597100 -0.0408560
vn -0.8755097 -0.3860660 -0.2905785
v 0.0167919 0.1597219 -0.0390920
vn 0.6342198 -0.6145961 -0.4690810
v 0.0139058 0.1596236 -0.0388534
vn 0.6335043 -0.3056251 0.7108205
v 0.0144196 0.1596411 -0.0411001
vn 0.0678478 0.6191955 0.7823002
v 0.0060876 0.1518930 -0.0324120
vn -0.0340405 0.9994205 -0.0000020
v 0.0065250 0.1519079 -0.0307789
vn -0.6290035 0.5705365 0.5280555
v 0.0077663 0.1519502 -0.0318407
vn -0.8036138 0.5695034 -0.1728316
v 0.0081989 0.1519649 -0.0304473
vn -0.3962037 0.5734329 -0.7170756
v 0.0072330 0.1519320 -0.0293154
vn 0.4994914 0.5353833 -0.6810824
v 0.0055947 0.1518762 -0.0293186
vn 0.7389654 0.6238073 0.2545477
v 0.0049791 0.1518552 -0.0310635
vn 0.2390168 -0.9367543 -0.2556606
v 0.0052717 0.1593295 -0.0293508
vn 0.4594447 -0.5953508 0.6591420
v 0.0057300 0.1593451 -0.0323774
vn -0.3557143 -0.5901691 0.7246847
v 0.0071546 0.1593936 -0.0321486
vn -0.7749966 -0.6050023 0.1826270
v 0.0080067 0.1594227 -0.0309308
vn -0.6334539 -0.5947177 -0.4950222
v 0.0077663 0.1594145 -0.0299563
vn 0.9487422 -0.3119102 -0.0509938
v 0.0046964 0.1593099 -0.0308140
vn -0.1147833 -0.3334317 -0.9357607
v 0.0065209 0.1593721 -0.0291424
vn -0.0340402 0.9994205 0.0000007
v 0.0245145 0.1525206 -0.0367789
vn -0.0560507 0.6024553 0.7961822
v 0.0243627 0.1525154 -0.0385156
vn -0.6894264 0.5635582 0.4550752
v 0.0257290 0.1525619 -0.0379136
vn -0.7012643 0.5951249 -0.3924982
v 0.0261089 0.1525749 -0.0362987
vn 0.0414030 0.6018514 -0.7975342
v 0.0244270 0.1525176 -0.0351928
vn 0.7300093 0.6332832 -0.2569801
v 0.0230193 0.1524696 -0.0359563
vn 0.6419355 0.6100919 0.4644424
v 0.0231001 0.1524724 -0.0375257
vn 0.4684789 -0.7491239 -0.4683385
v 0.0228452 0.1599280 -0.0358310
vn -0.3741818 -0.7464410 0.5502852
v 0.0252609 0.1600103 -0.0380436
vn 0.9123281 -0.3103460 0.2671007
v 0.0228132 0.1599270 -0.0375067
vn -0.2763146 -0.6102417 -0.7424657
v 0.0247619 0.1599933 -0.0352719
vn 0.3035232 -0.5906597 0.7476596
v 0.0239569 0.1599659 -0.0385023
vn -0.9193902 -0.3929390 -0.0179060
v 0.0259469 0.1600337 -0.0365176
vn -0.0340370 0.9994206 0.0000002
v 0.0155198 0.1522142 -0.0277789
vn -0.3271700 0.5001113 0.8017784
v 0.0160251 0.1522314 -0.0292238
vn -0.8085245 0.5884585 -0.0021706
v 0.0172488 0.1522731 -0.0277029
vn -0.4772387 0.5679161 -0.6706077
v 0.0164825 0.1522470 -0.0264607
vn 0.2647379 0.5987906 -0.7558861
v 0.0149073 0.1521934 -0.0262064
vn 0.7631226 0.6155267 -0.1969029
v 0.0139531 0.1521609 -0.0272611
vn 0.5696877 0.6347879 0.5220156
v 0.0141900 0.1521689 -0.0288488
vn -0.6786171 -0.6039746 -0.4179636
v 0.0168242 0.1597230 -0.0270913
vn -0.0814243 -0.5986415 -0.7968680
v 0.0154984 0.1596778 -0.0261505
vn 0.6402926 -0.5720167 -0.5126619
v 0.0138488 0.1596216 -0.0268500
vn 0.9325240 -0.2991629 0.2022391
v 0.0136151 0.1596137 -0.0282992
vn 0.2077217 -0.8657614 0.4553119
v 0.0143185 0.1596376 -0.0291951
vn -0.3195523 -0.4823513 0.8156124
v 0.0159852 0.1596944 -0.0292444
vn -0.7162985 -0.6002556 0.3558226
v 0.0169488 0.1597272 -0.0282301
vn -0.0340382 0.9994205 -0.0000021
v 0.0065250 0.1519079 -0.0367789
vn -0.5879690 0.5712860 0.5726472
v 0.0077677 0.1519502 -0.0378718
vn -0.5511394 0.5607303 -0.6179215
v 0.0077570 0.1519498 -0.0355462
vn -0.8324443 0.5495505 -0.0709292
v 0.0081824 0.1519643 -0.0363345
vn 0.0807528 0.5957412 -0.7991067
v 0.0064279 0.1519046 -0.0351868
vn 0.6843141 0.6284523 -0.3698134
v 0.0048676 0.1518514 -0.0363345
vn 0.6937808 0.6056024 0.3897615
v 0.0051096 0.1518597 -0.0377268
vn 0.1209244 0.5899178 0.7983572
v 0.0061948 0.1518966 -0.0384339
vn 0.4290573 -0.5657396 -0.7041652
v 0.0056208 0.1593414 -0.0352490
vn 0.8224655 -0.5680823 -0.0288631
v 0.0045617 0.1593053 -0.0366293
vn -0.0937305 -0.8805213 0.4646471
v 0.0065957 0.1593746 -0.0384022
vn 0.6072463 -0.3276423 0.7238111
v 0.0050416 0.1593217 -0.0379583
vn -0.8672224 -0.3702268 0.3329525
v 0.0078686 0.1594180 -0.0373203
vn -0.7184414 -0.6027867 -0.3471169
v 0.0078261 0.1594165 -0.0360533
vn -0.2536624 -0.5854291 -0.7700183
v 0.0069962 0.1593883 -0.0352229
# 189 vertices, 0 vertices normals

f 1//1 2//2 3//3
f 3//3 2//2 4//4
f 8//8 5//5 6//6
f 6//6 5//5 7//7
f 4//4 9//9 3//3
f 21//21 5//5 8//8
f 3//3 9//9 10//10
f 12//12 11//11 10//10
f 12//12 10//10 9//9
f 11//11 12//12 14//14
f 11//11 14//14 13//13
f 13//13 14//14 15//15
f 15//15 14//14 17//17
f 15//15 17//17 16//16
f 16//16 17//17 18//18
f 18//18 17//17 19//19
f 18//18 19//19 20//20
f 19//19 21//21 20//20
f 20//20 21//21 8//8
f 22//22 23//23 24//24
f 24//24 23//23 25//25
f 2//2 1//1 36//36
f 25//25 23//23 26//26
f 26//26 27//27 25//25
f 27//27 26//26 29//29
f 27//27 29//29 28//28
f 28//28 29//29 30//30
f 29//29 31//31 30//30
f 30//30 31//31 32//32
f 32//32 31//31 94//94
f 32//32 94//94 33//33
f 33//33 94//94 34//34
f 35//35 36//36 34//34
f 34//34 36//36 33//33
f 36//36 35//35 2//2
f 37//37 38//38 24//24
f 24//24 38//38 22//22
f 39//39 37//37 40//40
f 39//39 40//40 41//41
f 41//41 40//40 42//42
f 41//41 42//42 43//43
f 43//43 42//42 44//44
f 44//44 45//45 43//43
f 46//46 47//47 44//44
f 44//44 47//47 45//45
f 47//47 46//46 48//48
f 47//47 48//48 106//106
f 6//6 7//7 50//50
f 37//37 39//39 38//38
f 52//52 51//51 53//53
f 53//53 55//55 54//54
f 53//53 54//54 52//52
f 53//53 56//56 55//55
f 55//55 56//56 57//57
f 57//57 56//56 59//59
f 57//57 59//59 58//58
f 58//58 59//59 50//50
f 50//50 49//49 58//58
f 56//56 53//53 51//51
f 61//61 59//59 60//60
f 60//60 59//59 51//51
f 59//59 56//56 51//51
f 62//62 48//48 46//46
f 44//44 42//42 61//61
f 46//46 44//44 61//61
f 46//46 61//61 62//62
f 51//51 48//48 62//62
f 62//62 60//60 51//51
f 61//61 60//60 62//62
f 63//63 97//97 65//65
f 63//63 65//65 64//64
f 64//64 65//65 66//66
f 67//67 68//68 66//66
f 66//66 68//68 64//64
f 22//22 38//38 67//67
f 67//67 38//38 68//68
f 97//97 63//63 69//69
f 4//4 2//2 71//71
f 71//71 2//2 93//93
f 71//71 93//93 72//72
f 87//87 72//72 73//73
f 73//73 91//91 87//87
f 74//74 82//82 91//91
f 49//49 75//75 76//76
f 75//75 86//86 76//76
f 76//76 86//86 77//77
f 77//77 86//86 78//78
f 74//74 79//79 82//82
f 82//82 79//79 81//81
f 81//81 79//79 80//80
f 81//81 80//80 78//78
f 78//78 80//80 77//77
f 75//75 49//49 7//7
f 75//75 7//7 5//5
f 9//9 4//4 71//71
f 21//21 19//19 84//84
f 81//81 91//91 82//82
f 75//75 21//21 84//84
f 84//84 19//19 17//17
f 5//5 21//21 75//75
f 81//81 78//78 83//83
f 86//86 75//75 84//84
f 14//14 85//85 84//84
f 84//84 83//83 86//86
f 14//14 84//84 17//17
f 88//88 9//9 71//71
f 88//88 71//71 72//72
f 88//88 72//72 87//87
f 12//12 9//9 88//88
f 87//87 91//91 89//89
f 87//87 85//85 88//88
f 88//88 85//85 14//14
f 14//14 12//12 88//88
f 89//89 85//85 87//87
f 89//89 91//91 81//81
f 78//78 86//86 83//83
f 83//83 84//84 85//85
f 83//83 85//85 89//89
f 83//83 89//89 81//81
f 23//23 22//22 67//67
f 35//35 34//34 95//95
f 95//95 34//34 94//94
f 70//70 90//90 69//69
f 70//70 74//74 90//90
f 96//96 97//97 90//90
f 90//90 91//91 96//96
f 90//90 74//74 91//91
f 31//31 100//100 94//94
f 94//94 100//100 95//95
f 93//93 95//95 92//92
f 2//2 35//35 93//93
f 93//93 35//35 95//95
f 72//72 93//93 92//92
f 73//73 72//72 92//92
f 95//95 100//100 92//92
f 91//91 73//73 96//96
f 98//98 23//23 67//67
f 67//67 66//66 98//98
f 99//99 66//66 65//65
f 26//26 23//23 98//98
f 90//90 97//97 69//69
f 66//66 99//99 98//98
f 26//26 98//98 29//29
f 99//99 97//97 96//96
f 100//100 29//29 98//98
f 100//100 98//98 99//99
f 99//99 65//65 97//97
f 96//96 73//73 92//92
f 31//31 29//29 100//100
f 92//92 100//100 99//99
f 96//96 92//92 99//99
f 50//50 7//7 49//49
f 76//76 57//57 58//58
f 76//76 58//58 49//49
f 80//80 101//101 77//77
f 101//101 76//76 77//77
f 52//52 54//54 101//101
f 101//101 54//54 55//55
f 55//55 57//57 101//101
f 101//101 57//57 76//76
f 101//101 105//105 52//52
f 103//103 105//105 102//102
f 102//102 101//101 80//80
f 80//80 79//79 102//102
f 101//101 102//102 105//105
f 102//102 79//79 103//103
f 79//79 74//74 103//103
f 70//70 103//103 74//74
f 104//104 69//69 63//63
f 63//63 106//106 104//104
f 103//103 70//70 104//104
f 104//104 105//105 103//103
f 70//70 69//69 104//104
f 105//105 104//104 106//106
f 107//107 39//39 41//41
f 107//107 43//43 45//45
f 45//45 106//106 107//107
f 106//106 45//45 47//47
f 64//64 68//68 107//107
f 68//68 39//39 107//107
f 107//107 41//41 43//43
f 63//63 107//107 106//106
f 107//107 63//63 64//64
f 68//68 38//38 39//39
f 51//51 52//52 105//105
f 51//51 105//105 48//48
f 48//48 105//105 106//106
f 37//37 24//24 32//32
f 40//40 37//37 61//61
f 28//28 25//25 27//27
f 24//24 25//25 32//32
f 32//32 25//25 30//30
f 30//30 25//25 28//28
f 61//61 37//37 32//32
f 33//33 61//61 32//32
f 42//42 40//40 61//61
f 18//18 20//20 11//11
f 11//11 20//20 8//8
f 13//13 15//15 16//16
f 8//8 6//6 11//11
f 13//13 16//16 11//11
f 11//11 16//16 18//18
f 6//6 50//50 11//11
f 11//11 50//50 59//59
f 36//36 61//61 33//33
f 61//61 36//36 1//1
f 61//61 1//1 3//3
f 11//11 59//59 61//61
f 11//11 61//61 10//10
f 10//10 61//61 3//3
f 108//108 110//110 109//109
f 111//111 110//110 108//108
f 108//108 112//112 111//111
f 108//108 113//113 112//112
f 114//114 113//113 108//108
f 108//108 115//115 114//114
f 108//108 109//109 115//115
f 121//121 120//120 116//116
f 121//121 118//118 120//120
f 116//116 117//117 121//121
f 120//120 118//118 119//119
f 113//113 117//117 112//112
f 112//112 117//117 116//116
f 112//112 116//116 111//111
f 111//111 116//116 120//120
f 111//111 120//120 110//110
f 110//110 120//120 119//119
f 110//110 119//119 109//109
f 109//109 119//119 118//118
f 109//109 118//118 115//115
f 115//115 118//118 121//121
f 115//115 121//121 114//114
f 114//114 121//121 113//113
f 113//113 121//121 117//117
f 122//122 124//124 123//123
f 122//122 125//125 124//124
f 122//122 126//126 125//125
f 128//128 127//127 122//122
f 122//122 127//127 126//126
f 122//122 123//123 128//128
f 132//132 133//133 130//130
f 130//130 129//129 132//132
f 130//130 131//131 129//129
f 127//127 129//129 126//126
f 126//126 129//129 131//131
f 126//126 131//131 125//125
f 125//125 131//131 130//130
f 125//125 130//130 124//124
f 124//124 130//130 133//133
f 124//124 133//133 123//123
f 123//123 133//133 128//128
f 128//128 133//133 132//132
f 128//128 132//132 127//127
f 127//127 132//132 129//129
f 136//136 134//134 135//135
f 135//135 137//137 136//136
f 135//135 138//138 137//137
f 139//139 138//138 135//135
f 140//140 139//139 135//135
f 134//134 140//140 135//135
f 142//142 143//143 141//141
f 144//144 145//145 141//141
f 141//141 143//143 144//144
f 141//141 145//145 147//147
f 141//141 146//146 142//142
f 138//138 147//147 145//145
f 138//138 145//145 137//137
f 137//137 145//145 144//144
f 137//137 144//144 136//136
f 136//136 144//144 143//143
f 136//136 143//143 134//134
f 134//134 143//143 142//142
f 134//134 142//142 140//140
f 140//140 142//142 146//146
f 140//140 146//146 139//139
f 139//139 146//146 141//141
f 139//139 141//141 147//147
f 139//139 147//147 138//138
f 148//148 150//150 149//149
f 151//151 150//150 148//148
f 148//148 152//152 151//151
f 153//153 152//152 148//148
f 148//148 154//154 153//153
f 149//149 154//154 148//148
f 156//156 158//158 155//155
f 158//158 156//156 160//160
f 157//157 159//159 155//155
f 155//155 159//159 156//156
f 152//152 158//158 151//151
f 151//151 158//158 160//160
f 151//151 160//160 150//150
f 150//150 160//160 156//156
f 150//150 156//156 149//149
f 149//149 156//156 159//159
f 149//149 159//159 154//154
f 154//154 159//159 157//157
f 154//154 157//157 153//153
f 153//153 157//157 155//155
f 153//153 155//155 152//152
f 152//152 155//155 158//158
f 163//163 162//162 161//161
f 164//164 163//163 161//161
f 161//161 165//165 164//164
f 166//166 165//165 161//161
f 167//167 166//166 161//161
f 161//161 162//162 167//167
f 172//172 168//168 169//169
f 172//172 169//169 170//170
f 172//172 170//170 171//171
f 173//173 174//174 172//172
f 172//172 174//174 168//168
f 165//165 169//169 164//164
f 164//164 169//169 168//168
f 164//164 168//168 163//163
f 163//163 168//168 174//174
f 163//163 174//174 162//162
f 162//162 174//174 173//173
f 162//162 173//173 172//172
f 162//162 172//172 167//167
f 167//167 172//172 171//171
f 167//167 171//171 166//166
f 166//166 171//171 170//170
f 166//166 170//170 165//165
f 165//165 170//170 169//169
f 176//176 182//182 175//175
f 175//175 178//178 176//176
f 175//175 177//177 178//178
f 175//175 179//179 177//177
f 175//175 180//180 179//179
f 175//175 181//181 180//180
f 175//175 182//182 181//181
f 189//189 183//183 185//185
f 185//185 183//183 184//184
f 184//184 186//186 185//185
f 185//185 187//187 188//188
f 185//185 188//188 189//189
f 179//179 183//183 189//189
f 179//179 189//189 177//177
f 177//177 189//189 188//188
f 177//177 188//188 178//178
f 178//178 188//188 187//187
f 178//178 187//187 176//176
f 176//176 187//187 185//185
f 176//176 185//185 182//182
f 182//182 185//185 186//186
f 182//182 186//186 181//181
f 181//181 186//186 184//184
f 181//181 184//184 180//180
f 180//180 184//184 183//183
f 180//180 183//183 179//179
# 350 faces, 0 coords texture

# End of File
