####
#
# OBJ File Generated by Meshlab
#
####
# Object finger_grammar1.obj
#
# Vertices: 12
# Faces: 20
#
####
vn -3.1234794 -0.3368705 -3.1415925
v -0.0308817 0.0954262 -0.0047670
vn 1.7301744 -1.3933047 1.5707965
v 0.0035028 0.0940252 0.0339680
vn -1.7301751 1.3933045 1.5707965
v -0.0311541 0.0979516 0.0339680
vn 1.3933042 1.7301749 -1.5707963
v 0.0026857 0.1016013 -0.0047670
vn -1.3933045 -1.7301749 1.5707976
v -0.0303370 0.0903755 0.0339680
vn 1.7301750 -1.3933043 -1.5707965
v 0.0035028 0.0940252 -0.0047670
vn 1.3933045 1.7301749 1.5707963
v 0.0026857 0.1016013 0.0339680
vn -1.7301748 1.3933045 -1.5707965
v -0.0311541 0.0979516 -0.0047670
vn -3.1234789 -0.3368705 3.1415925
v -0.0308817 0.0954262 0.0339680
vn 3.1234796 0.3368704 3.1415920
v 0.0032304 0.0965505 0.0339680
vn -1.3933046 -1.7301751 -1.5707976
v -0.0303370 0.0903755 -0.0047670
vn 3.1234791 0.3368703 -3.1415918
v 0.0032304 0.0965505 -0.0047670
# 12 vertices, 0 vertices normals

f 6//6 2//2 5//5
f 8//8 7//7 4//4
f 8//8 3//3 7//7
f 9//9 3//3 8//8
f 9//9 8//8 1//1
f 10//10 5//5 2//2
f 10//10 9//9 5//5
f 10//10 7//7 3//3
f 10//10 3//3 9//9
f 11//11 6//6 5//5
f 11//11 9//9 1//1
f 11//11 5//5 9//9
f 12//12 10//10 2//2
f 12//12 2//2 6//6
f 12//12 6//6 11//11
f 12//12 4//4 7//7
f 12//12 8//8 4//4
f 12//12 7//7 10//10
f 12//12 11//11 1//1
f 12//12 1//1 8//8
# 20 faces, 0 coords texture

# End of File
