####
#
# OBJ File Generated by Meshlab
#
####
# Object finger_grammar2.obj
#
# Vertices: 13
# Faces: 22
#
####
vn -1.7560073 1.3905236 1.5443742
v -0.0365175 0.1342100 0.0318986
vn 1.7562802 -1.3904997 -1.5450068
v -0.0017212 0.1302124 -0.0067039
vn -1.7495340 1.3385160 -1.5967814
v -0.0364377 0.1335687 -0.0068310
vn -1.3680007 -1.7265782 1.5967829
v -0.0355764 0.1266494 0.0320258
vn 1.3615266 1.7785851 1.5443734
v -0.0027422 0.1384142 0.0318986
vn -1.3615255 -1.7785854 -1.5443739
v -0.0354965 0.1260082 -0.0067039
vn -3.1240070 -0.3360547 3.1411548
v -0.0358901 0.1291696 0.0319834
vn 1.3682712 1.7266005 -1.5974159
v -0.0026623 0.1377730 -0.0068310
vn 1.7495344 -1.3385164 1.5967824
v -0.0018010 0.1308537 0.0320258
vn -3.1110606 -0.4400695 -3.1411543
v -0.0361240 0.1310485 -0.0067886
vn 3.1110601 0.4400685 3.1411543
v -0.0021147 0.1333739 0.0319834
vn 1.3672034 0.0698689 -5.9697576
v -0.0023486 0.1352528 -0.0067886
vn 4.2277107 0.4776626 -2.9371607
v -0.0020349 0.1327326 -0.0067462
# 13 vertices, 0 vertices normals

f 5//5 3//3 1//1
f 6//6 2//2 4//4
f 7//7 1//1 3//3
f 8//8 3//3 5//5
f 9//9 4//4 2//2
f 10//10 6//6 4//4
f 10//10 7//7 3//3
f 10//10 4//4 7//7
f 11//11 5//5 1//1
f 11//11 1//1 7//7
f 11//11 7//7 4//4
f 11//11 4//4 9//9
f 11//11 9//9 2//2
f 12//12 2//2 6//6
f 12//12 6//6 10//10
f 12//12 8//8 2//2
f 12//12 10//10 3//3
f 12//12 3//3 8//8
f 13//13 8//8 5//5
f 13//13 5//5 11//11
f 13//13 11//11 2//2
f 13//13 2//2 8//8
# 22 faces, 0 coords texture

# End of File
